<svg xmlns="http://www.w3.org/2000/svg" xmlns:xlink="http://www.w3.org/1999/xlink" viewBox="876.69 1212.16 2013.59 1323.09">
	<path fill="white" transform="matrix(7.8125 0 0 7.8125 -0.00195312 0)" d="M255.407 155.312C266.965 154.992 278.573 155.261 290.136 155.281C288.395 163.654 284.584 171.752 282.032 179.927C278.587 189.363 275.708 199.001 272.519 208.525L252.689 267.799L245.786 288.582C244.704 291.849 243.808 295.27 242.548 298.466C241.088 302.719 239.766 307.019 238.325 311.28C237.029 315.116 234.69 320.25 234.37 324.222L234.487 324.439C229.281 324.631 224.079 324.392 218.875 324.306Q209.483 324.191 200.091 324.3C199.287 320.085 198.764 315.806 197.979 311.581C196.258 302.326 194.256 293.123 192.485 283.877C191.416 278.292 181.858 224.088 180.9 222.895L180.563 223.141C179.951 226.399 178.619 229.66 177.588 232.811L172.803 247.729Q164.071 274.492 155.003 301.142C152.369 308.917 149.415 316.595 147.038 324.451Q129.628 324.079 112.217 324.445C114.239 316.469 117.292 308.531 119.981 300.748L130.751 268.952L169.217 155.219C180.378 155.923 191.713 155.447 202.89 155.243Q212.441 207.696 221.184 260.29C223.487 252.406 226.237 244.591 228.753 236.765L243.718 190.805Q249.717 173.109 255.407 155.312Z"/>
	<path fill="#FEC20F" transform="matrix(7.8125 0 0 7.8125 -0.00195312 0)" d="M290.136 155.281C294.746 155.304 299.254 156.403 303.684 157.587C319.425 161.792 334.44 169.571 345.986 181.217Q346.703 181.934 347.403 182.668Q348.102 183.402 348.784 184.154Q349.465 184.905 350.127 185.673Q350.789 186.441 351.432 187.226Q352.075 188.01 352.698 188.81Q353.321 189.61 353.925 190.425Q354.528 191.24 355.111 192.07Q355.694 192.9 356.256 193.744Q356.818 194.588 357.359 195.446Q357.9 196.304 358.419 197.175Q358.939 198.046 359.436 198.929Q359.934 199.813 360.41 200.709Q360.885 201.604 361.339 202.512Q361.792 203.419 362.222 204.337Q362.653 205.255 363.061 206.184Q363.469 207.112 363.853 208.051Q364.238 208.989 364.599 209.937Q364.96 210.884 365.297 211.841Q365.635 212.797 365.949 213.761Q366.262 214.726 366.552 215.698Q366.842 216.67 367.107 217.648Q367.373 218.627 367.614 219.612Q367.855 220.597 368.071 221.588Q368.288 222.579 368.48 223.575Q368.672 224.57 368.839 225.571Q369.006 226.571 369.148 227.575Q369.291 228.579 369.408 229.586Q369.525 230.594 369.617 231.604Q369.71 232.614 369.777 233.625Q369.844 234.637 369.886 235.651Q369.928 236.664 369.945 237.678Q369.962 238.692 369.954 239.706C369.764 261.171 359.972 283.084 344.654 298.008Q343.356 299.275 342.01 300.49Q340.663 301.705 339.27 302.867Q337.877 304.028 336.439 305.134Q335.001 306.239 333.521 307.288Q332.041 308.336 330.521 309.325Q329.001 310.315 327.444 311.244Q325.886 312.173 324.293 313.04Q322.7 313.907 321.074 314.711Q319.448 315.515 317.792 316.254Q316.136 316.994 314.452 317.668Q312.768 318.341 311.059 318.949Q309.35 319.556 307.618 320.095Q305.887 320.635 304.135 321.106Q302.384 321.577 300.615 321.979Q298.847 322.381 297.064 322.714Q295.281 323.046 293.486 323.308C284.176 324.581 274.801 324.508 265.428 324.509L234.487 324.439L234.37 324.222C234.69 320.25 237.029 315.116 238.325 311.28C239.766 307.019 241.088 302.719 242.548 298.466C251.085 298.61 259.59 298.751 268.132 298.766C282.591 298.79 294.965 298.545 308.371 292.083Q311.896 290.416 315.19 288.33Q318.484 286.243 321.497 283.768C333.04 274.198 341.545 259.691 342.886 244.608Q343.017 243.196 343.078 241.779Q343.139 240.362 343.13 238.943Q343.12 237.525 343.04 236.109Q342.96 234.693 342.81 233.282Q342.66 231.872 342.44 230.471Q342.22 229.07 341.931 227.681Q341.642 226.293 341.284 224.92Q340.927 223.548 340.501 222.195Q340.076 220.842 339.584 219.511Q339.092 218.181 338.534 216.877Q337.977 215.573 337.355 214.298Q336.734 213.023 336.05 211.78Q335.366 210.538 334.621 209.331Q333.876 208.124 333.072 206.955Q332.268 205.787 331.408 204.659Q330.547 203.532 329.631 202.449C321.581 192.821 308.656 185.37 296.638 182.203C291.846 180.941 286.956 180.36 282.032 179.927C284.584 171.752 288.395 163.654 290.136 155.281Z"/>
</svg>